<svg width="54" height="54" viewBox="0 0 54 54" fill="none" xmlns="http://www.w3.org/2000/svg">
<g clip-path="url(#clip0_616_1924)">
<path d="M26.6108 53.2216C41.3076 53.2216 53.2216 41.3076 53.2216 26.6108C53.2216 11.9141 41.3076 0 26.6108 0C11.9141 0 0 11.9141 0 26.6108C0 41.3076 11.9141 53.2216 26.6108 53.2216Z" fill="#F7CFA2"/>
<path d="M20.0786 17.7637L27.6703 25.3553L37.3165 15.7092L29.7248 8.1175L20.0786 17.7637Z" fill="#886C60"/>
<path d="M29.7994 8.22055L37.2405 15.6616C37.9491 16.3702 39.1185 16.3702 39.8625 15.6616C40.5712 14.953 40.5712 13.7836 39.8625 13.0396L32.4215 5.59849C31.7128 4.88986 30.5435 4.88986 29.7994 5.59849C29.0908 6.30712 29.0908 7.47639 29.7994 8.22055Z" fill="#74594E"/>
<path d="M27.6027 25.2997L20.1616 17.8586C19.453 17.15 18.2836 17.15 17.5395 17.8586C16.8309 18.5672 16.8309 19.7366 17.5395 20.4807L24.9806 27.9217C25.6892 28.6304 26.8586 28.6304 27.6027 27.9217C28.3113 27.1777 28.3113 26.0083 27.6027 25.2997Z" fill="#74594E"/>
<path d="M49.0756 33.8039L34.1579 18.8862L30.8271 22.217L45.7448 37.1347C46.6661 38.056 48.1543 38.056 49.0756 37.1347C49.9969 36.2134 49.9969 34.7252 49.0756 33.8039Z" fill="#74594E"/>
<path d="M29.5163 35.9653H15.5199C11.2324 35.9653 7.72449 39.4378 7.72449 43.7608H37.3117C37.3117 39.4378 33.8392 35.9653 29.5163 35.9653Z" fill="#646B79"/>
</g>
<defs>
<clipPath id="clip0_616_1924">
<rect width="53.2215" height="53.2215" fill="white"/>
</clipPath>
</defs>
</svg>
