<svg width="54" height="54" viewBox="0 0 54 54" fill="none" xmlns="http://www.w3.org/2000/svg">
<g clip-path="url(#clip0_616_1865)">
<path d="M26.2073 41.4906C35.2668 41.4906 42.611 34.1465 42.611 25.0869C42.611 16.0274 35.2668 8.68323 26.2073 8.68323C17.1478 8.68323 9.80359 16.0274 9.80359 25.0869C9.80359 34.1465 17.1478 41.4906 26.2073 41.4906Z" fill="#FEE187"/>
<path d="M27.5226 23.852V19.1804C29.3873 19.5074 29.6677 20.5411 29.7098 21.1489C29.7206 21.3046 29.8491 21.4251 30.0053 21.4251H32.0421C32.2131 21.4251 32.3477 21.2803 32.339 21.1096C32.2068 18.5473 30.4505 16.8986 27.5227 16.5284V14.9572C27.5227 14.7934 27.3899 14.6608 27.2262 14.6608H25.1897C25.0258 14.6608 24.8932 14.7935 24.8932 14.9572V16.5284C21.8468 16.9136 20.0688 18.6827 20.0688 21.4251C20.0688 24.1676 21.8468 25.9365 24.8932 26.3218V30.9936C23.0284 30.6665 22.748 29.6328 22.7059 29.025C22.6951 28.8693 22.5666 28.7488 22.4104 28.7488H20.3737C20.2027 28.7488 20.0681 28.8936 20.0768 29.0643C20.2089 31.6266 21.9653 33.2753 24.8931 33.6456V35.2167C24.8931 35.3806 25.0258 35.5132 25.1896 35.5132H27.2261C27.3899 35.5132 27.5226 35.3805 27.5226 35.2167V33.6455C30.569 33.2602 32.347 31.4912 32.347 28.7487C32.347 26.0063 30.569 24.2372 27.5226 23.852ZM24.893 23.6694C22.6987 23.2847 22.6982 21.9214 22.6982 21.4249C22.6982 20.9285 22.6988 19.565 24.893 19.1803V23.6694ZM27.5226 30.9933V26.5041C29.7169 26.8888 29.7173 28.2523 29.7173 28.7487C29.7173 29.2451 29.717 30.6084 27.5226 30.9933Z" fill="#FFC61B"/>
<path d="M52.0889 35.3669C52.0879 34.9531 51.9226 34.5566 51.6295 34.2645C51.3361 33.9726 50.9343 33.8126 50.5251 33.81L44.3913 33.8234C43.5296 33.8253 42.8326 34.5254 42.8344 35.3871C42.8363 36.2478 43.5346 36.9442 44.3948 36.9442C44.3958 36.9442 44.3971 36.9442 44.3982 36.9442L47.0704 36.9383L37.321 45.662L34.5346 41.0054C36.1101 40.1825 37.5883 39.1105 38.91 37.7889C45.914 30.7847 45.914 19.3885 38.91 12.3845C31.9061 5.38055 20.5098 5.38055 13.5057 12.3845C12.8964 12.9938 12.8962 13.9818 13.5057 14.5913C14.1151 15.2005 15.1031 15.2006 15.7123 14.5913C21.4998 8.80379 30.9164 8.8041 36.7035 14.5913C42.4907 20.3785 42.4907 29.7951 36.7035 35.5823C35.5667 36.719 34.2889 37.6288 32.9272 38.3192L32.7163 37.9665C32.4693 37.5539 32.0461 37.2783 31.5689 37.2191C31.0915 37.1605 30.614 37.3243 30.2739 37.6645L28.1447 39.7937C23.7275 40.3702 19.0987 38.969 15.7124 35.5825C15.1031 34.9734 14.115 34.9734 13.5058 35.5825C12.8965 36.1918 12.8965 37.1798 13.5058 37.7893C16.686 40.9694 20.7717 42.7054 24.9408 42.9977L21.392 46.5465C21.3175 46.5163 21.2409 46.4898 21.1605 46.4709C11.1988 44.1284 4.24179 35.3352 4.24179 25.0865C4.24179 19.219 6.52676 13.703 10.6755 9.55432C14.8242 5.4056 20.3404 3.12064 26.2079 3.12064C38.3198 3.12064 48.1739 12.9745 48.1739 25.0865C48.1739 25.9482 48.8725 26.6468 49.7342 26.6468C50.596 26.6468 51.2946 25.9482 51.2946 25.0865C51.2946 11.2538 40.0407 0 26.2079 0C19.5069 0 13.207 2.6095 8.46878 7.34773C3.73055 12.086 1.12115 18.3858 1.12115 25.0865C1.12115 30.7743 3.07753 36.3453 6.62967 40.7734C9.78242 44.7035 14.08 47.6107 18.8599 49.0779L17.3781 50.5597C16.7688 51.169 16.7688 52.157 17.3781 52.7665C17.6828 53.0711 18.0821 53.2235 18.4814 53.2235C18.8807 53.2235 19.2802 53.0711 19.5848 52.7665L29.637 42.7142C30.3053 42.5852 30.9674 42.4171 31.62 42.2122L35.6139 48.8865C35.853 49.2861 36.258 49.558 36.7185 49.628C37.1786 49.6978 37.6463 49.5587 37.9935 49.248L48.9774 39.4197L48.9819 41.5076C48.9838 42.3683 49.6821 43.0647 50.5423 43.0647C50.5433 43.0647 50.5447 43.0647 50.5457 43.0647C51.4075 43.0628 52.1045 42.3627 52.1026 41.501L52.0889 35.3669Z" fill="#FFC61B"/>
</g>
<defs>
<clipPath id="clip0_616_1865">
<rect width="53.2235" height="53.2235" fill="white"/>
</clipPath>
</defs>
</svg>
