<svg width="54" height="54" viewBox="0 0 54 54" fill="none" xmlns="http://www.w3.org/2000/svg">
<g clip-path="url(#clip0_616_1874)">
<path d="M26.6117 53.2235C41.309 53.2235 53.2235 41.309 53.2235 26.6117C53.2235 11.9145 41.309 0 26.6117 0C11.9145 0 0 11.9145 0 26.6117C0 41.309 11.9145 53.2235 26.6117 53.2235Z" fill="#FFD15D"/>
<path d="M26.7593 53.2219C39.8077 53.1509 50.6324 43.6902 52.8197 31.2522L38.4392 16.8718L30.1586 26.2759L14.9336 41.3962L26.7593 53.2219Z" fill="#F9B54C"/>
<path d="M33.395 11.8275H14.9336V41.3961H38.4392V16.8717L33.395 11.8275Z" fill="white"/>
<path d="M38.4392 16.8717L33.3949 11.8275H24.6704V41.3961H38.4392V16.8717Z" fill="#E6F3FF"/>
<path d="M33.3949 16.8719L38.4392 16.8717L33.3949 11.8275V16.8719Z" fill="#CFDBE6"/>
<path d="M24.6405 26.3042C26.8163 26.3042 28.5803 24.5403 28.5803 22.3645C28.5803 20.1886 26.8163 18.4247 24.6405 18.4247C22.4646 18.4247 20.7007 20.1886 20.7007 22.3645C20.7007 24.5403 22.4646 26.3042 24.6405 26.3042Z" fill="#26BEBE"/>
<path d="M28.5803 22.3642C28.5803 20.1984 26.8325 18.4415 24.6704 18.4252V26.3032C26.8325 26.287 28.5803 24.5299 28.5803 22.3642Z" fill="#21ADA9"/>
<path d="M16.5149 34.7993C16.5149 30.3115 20.1529 26.6735 24.6407 26.6735C29.1285 26.6735 32.7666 30.3115 32.7666 34.7993H16.5149Z" fill="#324A5E"/>
<path d="M24.6704 26.6741V34.799H32.7663C32.7663 30.3214 29.1442 26.6902 24.6704 26.6741Z" fill="#2B3B4E"/>
<path d="M25.3792 37.8447L24.2388 36.7042L30.7777 30.1651L34.6901 34.0775L42.0857 24.8331L43.3448 25.8407L34.8238 36.4923L30.7777 32.4462L25.3792 37.8447Z" fill="#C1321F"/>
<path d="M42.5086 28.4822L42.1378 26.1409L39.8447 26.38L39.6774 24.7759L43.4917 24.3783L44.1017 28.2299L42.5086 28.4822Z" fill="#C1321F"/>
</g>
<defs>
<clipPath id="clip0_616_1874">
<rect width="53.2235" height="53.2235" fill="white"/>
</clipPath>
</defs>
</svg>
